<?xml version="1.0" encoding="UTF-8" standalone="no"?>
<!DOCTYPE svg PUBLIC "-//W3C//DTD SVG 1.1//EN"
 "http://www.w3.org/Graphics/SVG/1.1/DTD/svg11.dtd">
<!-- Generated by graphviz version 2.28.0 (20110507.0327)
 -->
<!-- Title: G Pages: 1 -->
<svg width="472pt" height="906pt"
 viewBox="0.00 0.00 472.00 906.00" xmlns="http://www.w3.org/2000/svg" xmlns:xlink="http://www.w3.org/1999/xlink">
<g id="graph1" class="graph" transform="scale(1 1) rotate(0) translate(4 902)">
<title>G</title>
<polygon fill="white" stroke="white" points="-4,5 -4,-902 469,-902 469,5 -4,5"/>
<g id="graph2" class="cluster"><title>cluster_global</title>
<polyline fill="none" stroke="gray" points="232,-8 444,-8 "/>
<path fill="none" stroke="gray" d="M444,-8C450,-8 456,-14 456,-20"/>
<polyline fill="none" stroke="gray" points="456,-20 456,-878 "/>
<path fill="none" stroke="gray" d="M456,-878C456,-884 450,-890 444,-890"/>
<polyline fill="none" stroke="gray" points="444,-890 232,-890 "/>
<path fill="none" stroke="gray" d="M232,-890C226,-890 220,-884 220,-878"/>
<polyline fill="none" stroke="gray" points="220,-878 220,-20 "/>
<path fill="none" stroke="gray" d="M220,-20C220,-14 226,-8 232,-8"/>
<text text-anchor="middle" x="338" y="-877.2" font-family="Times New Roman,serif" font-size="11.00" fill="gray">global</text>
</g>
<!-- \\MLAData -->
<g id="node2" class="node"><title>\\MLAData</title>
<a xlink:href="includes.class-mla-data.html" xlink:title="MLAData" target="_parent">
<polygon fill="none" stroke="black" points="370,-862 306,-862 306,-826 370,-826 370,-862"/>
<text text-anchor="middle" x="338" y="-841.2" font-family="Courier,monospace" font-size="11.00">MLAData</text>
</a>
</g>
<!-- \\MLAEdit -->
<g id="node3" class="node"><title>\\MLAEdit</title>
<a xlink:href="includes.class-mla-edit-media.html" xlink:title="MLAEdit" target="_parent">
<polygon fill="none" stroke="black" points="370,-808 306,-808 306,-772 370,-772 370,-808"/>
<text text-anchor="middle" x="338" y="-787.2" font-family="Courier,monospace" font-size="11.00">MLAEdit</text>
</a>
</g>
<!-- \\MLA_Checklist_Walker -->
<g id="node4" class="node"><title>\\MLA_Checklist_Walker</title>
<a xlink:href="includes.class-mla-edit-media.html" xlink:title="MLA_Checklist_Walker" target="_parent">
<polygon fill="none" stroke="black" points="414,-754 262,-754 262,-718 414,-718 414,-754"/>
<text text-anchor="middle" x="338" y="-733.2" font-family="Courier,monospace" font-size="11.00">MLA_Checklist_Walker</text>
</a>
</g>
<!-- \\Walker_Category -->
<g id="node19" class="node"><title>\\Walker_Category</title>
<ellipse fill="none" stroke="black" cx="78" cy="-736" rx="77.1866" ry="18"/>
<text text-anchor="middle" x="78" y="-732.3" font-family="Times New Roman,serif" font-size="14.00" fill="gray">\Walker_Category</text>
</g>
<!-- \\MLA_Checklist_Walker&#45;&gt;\\Walker_Category -->
<g id="edge3" class="edge"><title>\\MLA_Checklist_Walker&#45;&gt;\\Walker_Category</title>
<path fill="none" stroke="black" d="M261.682,-736C231.749,-736 197.123,-736 166.118,-736"/>
<polygon fill="none" stroke="black" points="165.754,-732.5 155.754,-736 165.754,-739.5 165.754,-732.5"/>
</g>
<!-- \\MLA_List_Table -->
<g id="node5" class="node"><title>\\MLA_List_Table</title>
<a xlink:href="includes.class-mla-list-table.html" xlink:title="MLA_List_Table" target="_parent">
<polygon fill="none" stroke="black" points="393.5,-700 282.5,-700 282.5,-664 393.5,-664 393.5,-700"/>
<text text-anchor="middle" x="338" y="-679.2" font-family="Courier,monospace" font-size="11.00">MLA_List_Table</text>
</a>
</g>
<!-- \\WP_List_Table -->
<g id="node21" class="node"><title>\\WP_List_Table</title>
<ellipse fill="none" stroke="black" cx="78" cy="-304" rx="71.4873" ry="18"/>
<text text-anchor="middle" x="78" y="-300.3" font-family="Times New Roman,serif" font-size="14.00" fill="gray">\WP_List_Table</text>
</g>
<!-- \\MLA_List_Table&#45;&gt;\\WP_List_Table -->
<g id="edge5" class="edge"><title>\\MLA_List_Table&#45;&gt;\\WP_List_Table</title>
<path fill="none" stroke="black" d="M282.35,-680.085C260.82,-676.796 237.185,-669.706 220,-655 119.09,-568.649 89.6198,-399.672 81.6923,-332.511"/>
<polygon fill="none" stroke="black" points="85.1381,-331.827 80.56,-322.273 78.1806,-332.597 85.1381,-331.827"/>
</g>
<!-- \\MLA -->
<g id="node6" class="node"><title>\\MLA</title>
<a xlink:href="includes.class-mla-main.html" xlink:title="MLA" target="_parent">
<polygon fill="none" stroke="black" points="365,-646 311,-646 311,-610 365,-610 365,-646"/>
<text text-anchor="middle" x="338" y="-625.2" font-family="Courier,monospace" font-size="11.00">MLA</text>
</a>
</g>
<!-- \\MLAModal -->
<g id="node7" class="node"><title>\\MLAModal</title>
<a xlink:href="includes.class-mla-media-modal.html" xlink:title="MLAModal" target="_parent">
<polygon fill="none" stroke="black" points="373.5,-592 302.5,-592 302.5,-556 373.5,-556 373.5,-592"/>
<text text-anchor="middle" x="338" y="-571.2" font-family="Courier,monospace" font-size="11.00">MLAModal</text>
</a>
</g>
<!-- \\MLAMime -->
<g id="node8" class="node"><title>\\MLAMime</title>
<a xlink:href="includes.class-mla-mime-types.html" xlink:title="MLAMime" target="_parent">
<polygon fill="none" stroke="black" points="370,-538 306,-538 306,-502 370,-502 370,-538"/>
<text text-anchor="middle" x="338" y="-517.2" font-family="Courier,monospace" font-size="11.00">MLAMime</text>
</a>
</g>
<!-- \\MLAObjects -->
<g id="node9" class="node"><title>\\MLAObjects</title>
<a xlink:href="includes.class-mla-objects.html" xlink:title="MLAObjects" target="_parent">
<polygon fill="none" stroke="black" points="380,-484 296,-484 296,-448 380,-448 380,-484"/>
<text text-anchor="middle" x="338" y="-463.2" font-family="Courier,monospace" font-size="11.00">MLAObjects</text>
</a>
</g>
<!-- \\MLATextWidget -->
<g id="node10" class="node"><title>\\MLATextWidget</title>
<a xlink:href="includes.class-mla-objects.html" xlink:title="MLATextWidget" target="_parent">
<polygon fill="none" stroke="black" points="390,-106 286,-106 286,-70 390,-70 390,-106"/>
<text text-anchor="middle" x="338" y="-85.2" font-family="Courier,monospace" font-size="11.00">MLATextWidget</text>
</a>
</g>
<!-- \\WP_Widget -->
<g id="node23" class="node"><title>\\WP_Widget</title>
<ellipse fill="none" stroke="black" cx="78" cy="-88" rx="58.4896" ry="18"/>
<text text-anchor="middle" x="78" y="-84.3" font-family="Times New Roman,serif" font-size="14.00" fill="gray">\WP_Widget</text>
</g>
<!-- \\MLATextWidget&#45;&gt;\\WP_Widget -->
<g id="edge7" class="edge"><title>\\MLATextWidget&#45;&gt;\\WP_Widget</title>
<path fill="none" stroke="black" d="M285.719,-88C245.993,-88 190.59,-88 147.139,-88"/>
<polygon fill="none" stroke="black" points="146.933,-84.5001 136.933,-88 146.933,-91.5001 146.933,-84.5001"/>
</g>
<!-- \\MLAOptions -->
<g id="node11" class="node"><title>\\MLAOptions</title>
<a xlink:href="includes.class-mla-options.html" xlink:title="MLAOptions" target="_parent">
<polygon fill="none" stroke="black" points="380,-376 296,-376 296,-340 380,-340 380,-376"/>
<text text-anchor="middle" x="338" y="-355.2" font-family="Courier,monospace" font-size="11.00">MLAOptions</text>
</a>
</g>
<!-- \\MLASettings -->
<g id="node12" class="node"><title>\\MLASettings</title>
<a xlink:href="includes.class-mla-settings.html" xlink:title="MLASettings" target="_parent">
<polygon fill="none" stroke="black" points="383.5,-322 292.5,-322 292.5,-286 383.5,-286 383.5,-322"/>
<text text-anchor="middle" x="338" y="-301.2" font-family="Courier,monospace" font-size="11.00">MLASettings</text>
</a>
</g>
<!-- \\MLAShortcodes -->
<g id="node13" class="node"><title>\\MLAShortcodes</title>
<a xlink:href="includes.class-mla-shortcodes.html" xlink:title="MLAShortcodes" target="_parent">
<polygon fill="none" stroke="black" points="390,-268 286,-268 286,-232 390,-232 390,-268"/>
<text text-anchor="middle" x="338" y="-247.2" font-family="Courier,monospace" font-size="11.00">MLAShortcodes</text>
</a>
</g>
<!-- \\MLA_Upload_List_Table -->
<g id="node14" class="node"><title>\\MLA_Upload_List_Table</title>
<a xlink:href="includes.class-mla-upload-list-table.html" xlink:title="MLA_Upload_List_Table" target="_parent">
<polygon fill="none" stroke="black" points="417,-430 259,-430 259,-394 417,-394 417,-430"/>
<text text-anchor="middle" x="338" y="-409.2" font-family="Courier,monospace" font-size="11.00">MLA_Upload_List_Table</text>
</a>
</g>
<!-- \\MLA_Upload_List_Table&#45;&gt;\\WP_List_Table -->
<g id="edge9" class="edge"><title>\\MLA_Upload_List_Table&#45;&gt;\\WP_List_Table</title>
<path fill="none" stroke="black" d="M258.926,-397.366C245.73,-393.937 232.322,-389.838 220,-385 180.875,-369.639 139.567,-344.748 111.849,-326.607"/>
<polygon fill="none" stroke="black" points="113.616,-323.58 103.347,-320.976 109.751,-329.416 113.616,-323.58"/>
</g>
<!-- \\MLA_Upload_Optional_List_Table -->
<g id="node15" class="node"><title>\\MLA_Upload_Optional_List_Table</title>
<a xlink:href="includes.class-mla-upload-optional-list-table.html" xlink:title="MLA_Upload_Optional_List_Table" target="_parent">
<polygon fill="none" stroke="black" points="447.5,-214 228.5,-214 228.5,-178 447.5,-178 447.5,-214"/>
<text text-anchor="middle" x="338" y="-193.2" font-family="Courier,monospace" font-size="11.00">MLA_Upload_Optional_List_Table</text>
</a>
</g>
<!-- \\MLA_Upload_Optional_List_Table&#45;&gt;\\WP_List_Table -->
<g id="edge11" class="edge"><title>\\MLA_Upload_Optional_List_Table&#45;&gt;\\WP_List_Table</title>
<path fill="none" stroke="black" d="M246.435,-214.076C237.391,-216.719 228.441,-219.686 220,-223 180.875,-238.361 139.567,-263.252 111.849,-281.393"/>
<polygon fill="none" stroke="black" points="109.751,-278.584 103.347,-287.024 113.616,-284.42 109.751,-278.584"/>
</g>
<!-- \\MLA_View_List_Table -->
<g id="node16" class="node"><title>\\MLA_View_List_Table</title>
<a xlink:href="includes.class-mla-view-list-table.html" xlink:title="MLA_View_List_Table" target="_parent">
<polygon fill="none" stroke="black" points="410.5,-160 265.5,-160 265.5,-124 410.5,-124 410.5,-160"/>
<text text-anchor="middle" x="338" y="-139.2" font-family="Courier,monospace" font-size="11.00">MLA_View_List_Table</text>
</a>
</g>
<!-- \\MLA_View_List_Table&#45;&gt;\\WP_List_Table -->
<g id="edge13" class="edge"><title>\\MLA_View_List_Table&#45;&gt;\\WP_List_Table</title>
<path fill="none" stroke="black" d="M265.488,-152.107C249.915,-156.032 233.94,-161.471 220,-169 169.304,-196.382 123.755,-246.937 98.877,-277.809"/>
<polygon fill="none" stroke="black" points="95.887,-275.946 92.4211,-285.958 101.374,-280.293 95.887,-275.946"/>
</g>
<!-- \\MLATest -->
<g id="node17" class="node"><title>\\MLATest</title>
<a xlink:href="tests.class-mla-tests.html" xlink:title="MLATest" target="_parent">
<polygon fill="none" stroke="black" points="370,-52 306,-52 306,-16 370,-16 370,-52"/>
<text text-anchor="middle" x="338" y="-31.2" font-family="Courier,monospace" font-size="11.00">MLATest</text>
</a>
</g>
</g>
</svg>
