<?xml version="1.0" encoding="UTF-8" standalone="no"?>
<!DOCTYPE svg PUBLIC "-//W3C//DTD SVG 1.1//EN"
 "http://www.w3.org/Graphics/SVG/1.1/DTD/svg11.dtd">
<!-- Generated by graphviz version 2.28.0 (20110507.0327)
 -->
<!-- Title: G Pages: 1 -->
<svg width="688pt" height="1404pt"
 viewBox="0.00 0.00 688.00 1403.59" xmlns="http://www.w3.org/2000/svg" xmlns:xlink="http://www.w3.org/1999/xlink">
<g id="graph1" class="graph" transform="scale(1 1) rotate(0) translate(4 1399.59)">
<title>G</title>
<polygon fill="white" stroke="white" points="-4,5 -4,-1399.59 685,-1399.59 685,5 -4,5"/>
<g id="graph2" class="cluster"><title>cluster_global</title>
<polyline fill="none" stroke="gray" points="242,-127.587 660,-127.587 "/>
<path fill="none" stroke="gray" d="M660,-127.587C666,-127.587 672,-133.587 672,-139.587"/>
<polyline fill="none" stroke="gray" points="672,-139.587 672,-1375.59 "/>
<path fill="none" stroke="gray" d="M672,-1375.59C672,-1381.59 666,-1387.59 660,-1387.59"/>
<polyline fill="none" stroke="gray" points="660,-1387.59 242,-1387.59 "/>
<path fill="none" stroke="gray" d="M242,-1387.59C236,-1387.59 230,-1381.59 230,-1375.59"/>
<polyline fill="none" stroke="gray" points="230,-1375.59 230,-139.587 "/>
<path fill="none" stroke="gray" d="M230,-139.587C230,-133.587 236,-127.587 242,-127.587"/>
<text text-anchor="middle" x="451" y="-1374.79" font-family="Times New Roman,serif" font-size="11.00" fill="gray">global</text>
</g>
<!-- \\MNA_Pad_Counts_Walker -->
<g id="node2" class="node"><title>\\MNA_Pad_Counts_Walker</title>
<a xlink:href="examples.twentytwelve-mla.content-tosca30-dropdown.html" xlink:title="MNA_Pad_Counts_Walker" target="_parent">
<polygon fill="none" stroke="black" points="633,-1143.59 475,-1143.59 475,-1107.59 633,-1107.59 633,-1143.59"/>
<text text-anchor="middle" x="554" y="-1122.79" font-family="Courier,monospace" font-size="11.00">MNA_Pad_Counts_Walker</text>
</a>
</g>
<!-- \\Walker_Category -->
<g id="node27" class="node"><title>\\Walker_Category</title>
<ellipse fill="none" stroke="black" cx="294" cy="-101.587" rx="77.1866" ry="18"/>
<text text-anchor="middle" x="294" y="-97.8867" font-family="Times New Roman,serif" font-size="14.00" fill="gray">\Walker_Category</text>
</g>
<!-- \\MNA_Pad_Counts_Walker&#45;&gt;\\Walker_Category -->
<g id="edge3" class="edge"><title>\\MNA_Pad_Counts_Walker&#45;&gt;\\Walker_Category</title>
<path fill="none" stroke="black" d="M474.884,-1119C463.051,-1114.68 452.109,-1108.2 444,-1098.59 303.899,-932.538 509.133,-292.095 372,-123.587 370.272,-121.464 368.355,-119.537 366.287,-117.789"/>
<polygon fill="none" stroke="black" points="367.884,-114.642 357.651,-111.897 363.939,-120.424 367.884,-114.642"/>
</g>
<!-- \\MLAPDF -->
<g id="node3" class="node"><title>\\MLAPDF</title>
<a xlink:href="includes.class-mla-data-pdf.html" xlink:title="MLAPDF" target="_parent">
<polygon fill="none" stroke="black" points="582.5,-1305.59 525.5,-1305.59 525.5,-1269.59 582.5,-1269.59 582.5,-1305.59"/>
<text text-anchor="middle" x="554" y="-1284.79" font-family="Courier,monospace" font-size="11.00">MLAPDF</text>
</a>
</g>
<!-- \\MLAData -->
<g id="node4" class="node"><title>\\MLAData</title>
<a xlink:href="includes.class-mla-data.html" xlink:title="MLAData" target="_parent">
<polygon fill="none" stroke="black" points="586,-1251.59 522,-1251.59 522,-1215.59 586,-1215.59 586,-1251.59"/>
<text text-anchor="middle" x="554" y="-1230.79" font-family="Courier,monospace" font-size="11.00">MLAData</text>
</a>
</g>
<!-- \\MLAEdit -->
<g id="node5" class="node"><title>\\MLAEdit</title>
<a xlink:href="includes.class-mla-edit-media.html" xlink:title="MLAEdit" target="_parent">
<polygon fill="none" stroke="black" points="586,-1197.59 522,-1197.59 522,-1161.59 586,-1161.59 586,-1197.59"/>
<text text-anchor="middle" x="554" y="-1176.79" font-family="Courier,monospace" font-size="11.00">MLAEdit</text>
</a>
</g>
<!-- \\MLA_Checklist_Walker -->
<g id="node6" class="node"><title>\\MLA_Checklist_Walker</title>
<a xlink:href="includes.class-mla-edit-media.html" xlink:title="MLA_Checklist_Walker" target="_parent">
<polygon fill="none" stroke="black" points="630,-873.587 478,-873.587 478,-837.587 630,-837.587 630,-873.587"/>
<text text-anchor="middle" x="554" y="-852.787" font-family="Courier,monospace" font-size="11.00">MLA_Checklist_Walker</text>
</a>
</g>
<!-- \\MLA_Checklist_Walker&#45;&gt;\\Walker_Category -->
<g id="edge5" class="edge"><title>\\MLA_Checklist_Walker&#45;&gt;\\Walker_Category</title>
<path fill="none" stroke="black" d="M477.881,-849.768C464.975,-845.485 452.882,-838.819 444,-828.587 237.534,-590.735 574.214,-365.064 372,-123.587 370.243,-121.488 368.3,-119.582 366.212,-117.852"/>
<polygon fill="none" stroke="black" points="367.766,-114.68 357.513,-112.011 363.864,-120.491 367.766,-114.68"/>
</g>
<!-- \\MLA_List_Table -->
<g id="node7" class="node"><title>\\MLA_List_Table</title>
<a xlink:href="includes.class-mla-list-table.html" xlink:title="MLA_List_Table" target="_parent">
<polygon fill="none" stroke="black" points="349.5,-766.587 238.5,-766.587 238.5,-730.587 349.5,-730.587 349.5,-766.587"/>
<text text-anchor="middle" x="294" y="-745.787" font-family="Courier,monospace" font-size="11.00">MLA_List_Table</text>
</a>
</g>
<!-- \\WP_List_Table -->
<g id="node30" class="node"><title>\\WP_List_Table</title>
<ellipse fill="none" stroke="black" cx="72" cy="-374.587" rx="71.4873" ry="18"/>
<text text-anchor="middle" x="72" y="-370.887" font-family="Times New Roman,serif" font-size="14.00" fill="gray">\WP_List_Table</text>
</g>
<!-- \\MLA_List_Table&#45;&gt;\\WP_List_Table -->
<g id="edge7" class="edge"><title>\\MLA_List_Table&#45;&gt;\\WP_List_Table</title>
<path fill="none" stroke="black" d="M238.412,-739.754C230.238,-736.605 222.414,-732.345 216,-726.587 116.736,-637.466 85.0626,-469.471 76.1375,-402.845"/>
<polygon fill="none" stroke="black" points="79.5803,-402.172 74.8507,-392.691 72.6358,-403.052 79.5803,-402.172"/>
</g>
<!-- \\MLA -->
<g id="node8" class="node"><title>\\MLA</title>
<a xlink:href="includes.class-mla-main.html" xlink:title="MLA" target="_parent">
<polygon fill="none" stroke="black" points="581,-1089.59 527,-1089.59 527,-1053.59 581,-1053.59 581,-1089.59"/>
<text text-anchor="middle" x="554" y="-1068.79" font-family="Courier,monospace" font-size="11.00">MLA</text>
</a>
</g>
<!-- \\MLAModal -->
<g id="node9" class="node"><title>\\MLAModal</title>
<a xlink:href="includes.class-mla-media-modal.html" xlink:title="MLAModal" target="_parent">
<polygon fill="none" stroke="black" points="589.5,-1035.59 518.5,-1035.59 518.5,-999.587 589.5,-999.587 589.5,-1035.59"/>
<text text-anchor="middle" x="554" y="-1014.79" font-family="Courier,monospace" font-size="11.00">MLAModal</text>
</a>
</g>
<!-- \\MLAMime -->
<g id="node10" class="node"><title>\\MLAMime</title>
<a xlink:href="includes.class-mla-mime-types.html" xlink:title="MLAMime" target="_parent">
<polygon fill="none" stroke="black" points="586,-981.587 522,-981.587 522,-945.587 586,-945.587 586,-981.587"/>
<text text-anchor="middle" x="554" y="-960.787" font-family="Courier,monospace" font-size="11.00">MLAMime</text>
</a>
</g>
<!-- \\MLAObjects -->
<g id="node11" class="node"><title>\\MLAObjects</title>
<a xlink:href="includes.class-mla-objects.html" xlink:title="MLAObjects" target="_parent">
<polygon fill="none" stroke="black" points="596,-927.587 512,-927.587 512,-891.587 596,-891.587 596,-927.587"/>
<text text-anchor="middle" x="554" y="-906.787" font-family="Courier,monospace" font-size="11.00">MLAObjects</text>
</a>
</g>
<!-- \\MLATextWidget -->
<g id="node12" class="node"><title>\\MLATextWidget</title>
<a xlink:href="includes.class-mla-objects.html" xlink:title="MLATextWidget" target="_parent">
<polygon fill="none" stroke="black" points="606,-603.587 502,-603.587 502,-567.587 606,-567.587 606,-603.587"/>
<text text-anchor="middle" x="554" y="-582.787" font-family="Courier,monospace" font-size="11.00">MLATextWidget</text>
</a>
</g>
<!-- \\WP_Widget -->
<g id="node32" class="node"><title>\\WP_Widget</title>
<ellipse fill="none" stroke="black" cx="294" cy="-47.5867" rx="58.4896" ry="18"/>
<text text-anchor="middle" x="294" y="-43.8867" font-family="Times New Roman,serif" font-size="14.00" fill="gray">\WP_Widget</text>
</g>
<!-- \\MLATextWidget&#45;&gt;\\WP_Widget -->
<g id="edge9" class="edge"><title>\\MLATextWidget&#45;&gt;\\WP_Widget</title>
<path fill="none" stroke="black" d="M501.997,-584.865C481.185,-581.866 458.622,-574.671 444,-558.587 297.706,-397.668 510.535,-242.231 372,-74.5867 367.223,-68.8059 361.129,-64.2614 354.467,-60.689"/>
<polygon fill="none" stroke="black" points="355.65,-57.3809 345.101,-56.3953 352.733,-63.7442 355.65,-57.3809"/>
</g>
<!-- \\MLAOptions -->
<g id="node13" class="node"><title>\\MLAOptions</title>
<a xlink:href="includes.class-mla-options.html" xlink:title="MLAOptions" target="_parent">
<polygon fill="none" stroke="black" points="596,-819.587 512,-819.587 512,-783.587 596,-783.587 596,-819.587"/>
<text text-anchor="middle" x="554" y="-798.787" font-family="Courier,monospace" font-size="11.00">MLAOptions</text>
</a>
</g>
<!-- \\MLA_Polylang -->
<g id="node14" class="node"><title>\\MLA_Polylang</title>
<a xlink:href="includes.class-mla-polylang-support.html" xlink:title="MLA_Polylang" target="_parent">
<polygon fill="none" stroke="black" points="603,-765.587 505,-765.587 505,-729.587 603,-729.587 603,-765.587"/>
<text text-anchor="middle" x="554" y="-744.787" font-family="Courier,monospace" font-size="11.00">MLA_Polylang</text>
</a>
</g>
<!-- \\MLASettings -->
<g id="node15" class="node"><title>\\MLASettings</title>
<a xlink:href="includes.class-mla-settings.html" xlink:title="MLASettings" target="_parent">
<polygon fill="none" stroke="black" points="599.5,-711.587 508.5,-711.587 508.5,-675.587 599.5,-675.587 599.5,-711.587"/>
<text text-anchor="middle" x="554" y="-690.787" font-family="Courier,monospace" font-size="11.00">MLASettings</text>
</a>
</g>
<!-- \\MLAShortcodes -->
<g id="node16" class="node"><title>\\MLAShortcodes</title>
<a xlink:href="includes.class-mla-shortcodes.html" xlink:title="MLAShortcodes" target="_parent">
<polygon fill="none" stroke="black" points="606,-657.587 502,-657.587 502,-621.587 606,-621.587 606,-657.587"/>
<text text-anchor="middle" x="554" y="-636.787" font-family="Courier,monospace" font-size="11.00">MLAShortcodes</text>
</a>
</g>
<!-- \\MLA_Upload_List_Table -->
<g id="node17" class="node"><title>\\MLA_Upload_List_Table</title>
<a xlink:href="includes.class-mla-upload-list-table.html" xlink:title="MLA_Upload_List_Table" target="_parent">
<polygon fill="none" stroke="black" points="633,-549.587 475,-549.587 475,-513.587 633,-513.587 633,-549.587"/>
<text text-anchor="middle" x="554" y="-528.787" font-family="Courier,monospace" font-size="11.00">MLA_Upload_List_Table</text>
</a>
</g>
<!-- \\MLA_Upload_List_Table&#45;&gt;\\WP_List_Table -->
<g id="edge11" class="edge"><title>\\MLA_Upload_List_Table&#45;&gt;\\WP_List_Table</title>
<path fill="none" stroke="black" d="M474.918,-524.285C463.23,-520.024 452.328,-513.747 444,-504.587 297.706,-343.668 518.366,-181.44 372,-20.5867 348.277,5.48425 330.247,-1.94877 295,-1.58671"/>
</g>
<!-- \\MLA_Upload_Optional_List_Table -->
<g id="node18" class="node"><title>\\MLA_Upload_Optional_List_Table</title>
<a xlink:href="includes.class-mla-upload-optional-list-table.html" xlink:title="MLA_Upload_Optional_List_Table" target="_parent">
<polygon fill="none" stroke="black" points="663.5,-495.587 444.5,-495.587 444.5,-459.587 663.5,-459.587 663.5,-495.587"/>
<text text-anchor="middle" x="554" y="-474.787" font-family="Courier,monospace" font-size="11.00">MLA_Upload_Optional_List_Table</text>
</a>
</g>
<!-- \\MLA_Upload_Optional_List_Table&#45;&gt;\\WP_List_Table -->
<g id="edge13" class="edge"><title>\\MLA_Upload_Optional_List_Table&#45;&gt;\\WP_List_Table</title>
<path fill="none" stroke="black" d="M454.052,-459.378C450.425,-456.794 447.046,-453.877 444,-450.587 312.352,-308.403 503.712,-162.712 372,-20.5867 348.041,5.26699 330.247,-1.94877 295,-1.58671"/>
</g>
<!-- \\MLA_View_List_Table -->
<g id="node19" class="node"><title>\\MLA_View_List_Table</title>
<a xlink:href="includes.class-mla-view-list-table.html" xlink:title="MLA_View_List_Table" target="_parent">
<polygon fill="none" stroke="black" points="626.5,-387.587 481.5,-387.587 481.5,-351.587 626.5,-351.587 626.5,-387.587"/>
<text text-anchor="middle" x="554" y="-366.787" font-family="Courier,monospace" font-size="11.00">MLA_View_List_Table</text>
</a>
</g>
<!-- \\MLA_View_List_Table&#45;&gt;\\WP_List_Table -->
<g id="edge15" class="edge"><title>\\MLA_View_List_Table&#45;&gt;\\WP_List_Table</title>
<path fill="none" stroke="black" d="M293,-1.58671C257.753,-1.22465 242.63,2.50704 216,-20.5867 114.726,-108.413 84.2184,-278.407 75.8716,-345.93"/>
<polygon fill="none" stroke="black" points="72.3533,-345.885 74.6752,-356.222 79.3065,-346.693 72.3533,-345.885"/>
<path fill="none" stroke="black" d="M481.348,-363.694C467.446,-359.512 454.084,-352.904 444,-342.587 341.497,-237.716 474.55,-125.412 372,-20.5867 347.35,4.60974 330.247,-1.94877 295,-1.58671"/>
</g>
<!-- \\MLA_WPML -->
<g id="node20" class="node"><title>\\MLA_WPML</title>
<a xlink:href="includes.class-mla-wpml-support.html" xlink:title="MLA_WPML" target="_parent">
<polygon fill="none" stroke="black" points="589.5,-441.587 518.5,-441.587 518.5,-405.587 589.5,-405.587 589.5,-441.587"/>
<text text-anchor="middle" x="554" y="-420.787" font-family="Courier,monospace" font-size="11.00">MLA_WPML</text>
</a>
</g>
<!-- \\MLA_WPML_List_Table -->
<g id="node21" class="node"><title>\\MLA_WPML_List_Table</title>
<a xlink:href="includes.class-mla-wpml-support.html" xlink:title="MLA_WPML_List_Table" target="_parent">
<polygon fill="none" stroke="black" points="626.5,-1359.59 481.5,-1359.59 481.5,-1323.59 626.5,-1323.59 626.5,-1359.59"/>
<text text-anchor="middle" x="554" y="-1338.79" font-family="Courier,monospace" font-size="11.00">MLA_WPML_List_Table</text>
</a>
</g>
<!-- \\MLA_WPML_List_Table&#45;&gt;\\MLA_List_Table -->
<g id="edge17" class="edge"><title>\\MLA_WPML_List_Table&#45;&gt;\\MLA_List_Table</title>
<path fill="none" stroke="black" d="M481.356,-1335.32C467.537,-1331.15 454.206,-1324.64 444,-1314.59 365.014,-1236.75 312.399,-880.167 298.608,-776.766"/>
<polygon fill="none" stroke="black" points="302.066,-776.22 297.29,-766.763 295.126,-777.134 302.066,-776.22"/>
</g>
<!-- \\MLA_WPML_Table -->
<g id="node22" class="node"><title>\\MLA_WPML_Table</title>
<a xlink:href="includes.class-mla-wpml-support.html" xlink:title="MLA_WPML_Table" target="_parent">
<polygon fill="none" stroke="black" points="609.5,-333.587 498.5,-333.587 498.5,-297.587 609.5,-297.587 609.5,-333.587"/>
<text text-anchor="middle" x="554" y="-312.787" font-family="Courier,monospace" font-size="11.00">MLA_WPML_Table</text>
</a>
</g>
<!-- \\MLAStreamImage -->
<g id="node23" class="node"><title>\\MLAStreamImage</title>
<a xlink:href="includes.mla-stream-image.html" xlink:title="MLAStreamImage" target="_parent">
<polygon fill="none" stroke="black" points="609.5,-279.587 498.5,-279.587 498.5,-243.587 609.5,-243.587 609.5,-279.587"/>
<text text-anchor="middle" x="554" y="-258.787" font-family="Courier,monospace" font-size="11.00">MLAStreamImage</text>
</a>
</g>
<!-- \\MLAMutex -->
<g id="node24" class="node"><title>\\MLAMutex</title>
<a xlink:href="includes.mla-stream-image.html" xlink:title="MLAMutex" target="_parent">
<polygon fill="none" stroke="black" points="589.5,-225.587 518.5,-225.587 518.5,-189.587 589.5,-189.587 589.5,-225.587"/>
<text text-anchor="middle" x="554" y="-204.787" font-family="Courier,monospace" font-size="11.00">MLAMutex</text>
</a>
</g>
<!-- \\MLATest -->
<g id="node25" class="node"><title>\\MLATest</title>
<a xlink:href="tests.class-mla-tests.html" xlink:title="MLATest" target="_parent">
<polygon fill="none" stroke="black" points="586,-171.587 522,-171.587 522,-135.587 586,-135.587 586,-171.587"/>
<text text-anchor="middle" x="554" y="-150.787" font-family="Courier,monospace" font-size="11.00">MLATest</text>
</a>
</g>
</g>
</svg>
