<?xml version="1.0" encoding="UTF-8" standalone="no"?>
<!DOCTYPE svg PUBLIC "-//W3C//DTD SVG 1.1//EN"
 "http://www.w3.org/Graphics/SVG/1.1/DTD/svg11.dtd">
<!-- Generated by graphviz version 2.28.0 (20110507.0327)
 -->
<!-- Title: G Pages: 1 -->
<svg width="352pt" height="312pt"
 viewBox="0.00 0.00 352.00 312.00" xmlns="http://www.w3.org/2000/svg" xmlns:xlink="http://www.w3.org/1999/xlink">
<g id="graph1" class="graph" transform="scale(1 1) rotate(0) translate(4 308)">
<title>G</title>
<polygon fill="white" stroke="white" points="-4,5 -4,-308 349,-308 349,5 -4,5"/>
<g id="graph2" class="cluster"><title>cluster_global</title>
<polyline fill="none" stroke="gray" points="220,-8 324,-8 "/>
<path fill="none" stroke="gray" d="M324,-8C330,-8 336,-14 336,-20"/>
<polyline fill="none" stroke="gray" points="336,-20 336,-284 "/>
<path fill="none" stroke="gray" d="M336,-284C336,-290 330,-296 324,-296"/>
<polyline fill="none" stroke="gray" points="324,-296 220,-296 "/>
<path fill="none" stroke="gray" d="M220,-296C214,-296 208,-290 208,-284"/>
<polyline fill="none" stroke="gray" points="208,-284 208,-20 "/>
<path fill="none" stroke="gray" d="M208,-20C208,-14 214,-8 220,-8"/>
<text text-anchor="middle" x="272" y="-283.2" font-family="Times New Roman,serif" font-size="11.00" fill="gray">global</text>
</g>
<!-- \\MLAData -->
<g id="node2" class="node"><title>\\MLAData</title>
<a xlink:href="includes.class-mla-data.html" xlink:title="MLAData" target="_parent">
<polygon fill="none" stroke="black" points="304,-268 240,-268 240,-232 304,-232 304,-268"/>
<text text-anchor="middle" x="272" y="-247.2" font-family="Courier,monospace" font-size="11.00">MLAData</text>
</a>
</g>
<!-- \\MLA_List_Table -->
<g id="node3" class="node"><title>\\MLA_List_Table</title>
<a xlink:href="includes.class-mla-list-table.html" xlink:title="MLA_List_Table" target="_parent">
<polygon fill="none" stroke="black" points="327.5,-214 216.5,-214 216.5,-178 327.5,-178 327.5,-214"/>
<text text-anchor="middle" x="272" y="-193.2" font-family="Courier,monospace" font-size="11.00">MLA_List_Table</text>
</a>
</g>
<!-- \\WP_List_Table -->
<g id="node8" class="node"><title>\\WP_List_Table</title>
<ellipse fill="none" stroke="black" cx="72" cy="-196" rx="71.4873" ry="18"/>
<text text-anchor="middle" x="72" y="-192.3" font-family="Times New Roman,serif" font-size="14.00" fill="gray">\WP_List_Table</text>
</g>
<!-- \\MLA_List_Table&#45;&gt;\\WP_List_Table -->
<g id="edge3" class="edge"><title>\\MLA_List_Table&#45;&gt;\\WP_List_Table</title>
<path fill="none" stroke="black" d="M216.371,-196C197.091,-196 174.98,-196 153.987,-196"/>
<polygon fill="none" stroke="black" points="153.788,-192.5 143.788,-196 153.788,-199.5 153.788,-192.5"/>
</g>
<!-- \\MLA -->
<g id="node4" class="node"><title>\\MLA</title>
<a xlink:href="includes.class-mla-main.html" xlink:title="MLA" target="_parent">
<polygon fill="none" stroke="black" points="299,-160 245,-160 245,-124 299,-124 299,-160"/>
<text text-anchor="middle" x="272" y="-139.2" font-family="Courier,monospace" font-size="11.00">MLA</text>
</a>
</g>
<!-- \\MLASettings -->
<g id="node5" class="node"><title>\\MLASettings</title>
<a xlink:href="includes.class-mla-settings.html" xlink:title="MLASettings" target="_parent">
<polygon fill="none" stroke="black" points="317.5,-106 226.5,-106 226.5,-70 317.5,-70 317.5,-106"/>
<text text-anchor="middle" x="272" y="-85.2" font-family="Courier,monospace" font-size="11.00">MLASettings</text>
</a>
</g>
<!-- \\MLATest -->
<g id="node6" class="node"><title>\\MLATest</title>
<a xlink:href="tests.class-mla-tests.html" xlink:title="MLATest" target="_parent">
<polygon fill="none" stroke="black" points="304,-52 240,-52 240,-16 304,-16 304,-52"/>
<text text-anchor="middle" x="272" y="-31.2" font-family="Courier,monospace" font-size="11.00">MLATest</text>
</a>
</g>
</g>
</svg>
