<?xml version="1.0" encoding="UTF-8" standalone="no"?>
<!DOCTYPE svg PUBLIC "-//W3C//DTD SVG 1.1//EN"
 "http://www.w3.org/Graphics/SVG/1.1/DTD/svg11.dtd">
<!-- Generated by graphviz version 2.28.0 (20110507.0327)
 -->
<!-- Title: G Pages: 1 -->
<svg width="352pt" height="582pt"
 viewBox="0.00 0.00 352.00 582.00" xmlns="http://www.w3.org/2000/svg" xmlns:xlink="http://www.w3.org/1999/xlink">
<g id="graph1" class="graph" transform="scale(1 1) rotate(0) translate(4 578)">
<title>G</title>
<polygon fill="white" stroke="white" points="-4,5 -4,-578 349,-578 349,5 -4,5"/>
<g id="graph2" class="cluster"><title>cluster_global</title>
<polyline fill="none" stroke="gray" points="220,-8 324,-8 "/>
<path fill="none" stroke="gray" d="M324,-8C330,-8 336,-14 336,-20"/>
<polyline fill="none" stroke="gray" points="336,-20 336,-554 "/>
<path fill="none" stroke="gray" d="M336,-554C336,-560 330,-566 324,-566"/>
<polyline fill="none" stroke="gray" points="324,-566 220,-566 "/>
<path fill="none" stroke="gray" d="M220,-566C214,-566 208,-560 208,-554"/>
<polyline fill="none" stroke="gray" points="208,-554 208,-20 "/>
<path fill="none" stroke="gray" d="M208,-20C208,-14 214,-8 220,-8"/>
<text text-anchor="middle" x="272" y="-553.2" font-family="Times New Roman,serif" font-size="11.00" fill="gray">global</text>
</g>
<!-- \\MLAData -->
<g id="node2" class="node"><title>\\MLAData</title>
<a xlink:href="includes.class-mla-data.html" xlink:title="MLAData" target="_parent">
<polygon fill="none" stroke="black" points="304,-538 240,-538 240,-502 304,-502 304,-538"/>
<text text-anchor="middle" x="272" y="-517.2" font-family="Courier,monospace" font-size="11.00">MLAData</text>
</a>
</g>
<!-- \\MLAEdit -->
<g id="node3" class="node"><title>\\MLAEdit</title>
<a xlink:href="includes.class-mla-edit-media.html" xlink:title="MLAEdit" target="_parent">
<polygon fill="none" stroke="black" points="304,-484 240,-484 240,-448 304,-448 304,-484"/>
<text text-anchor="middle" x="272" y="-463.2" font-family="Courier,monospace" font-size="11.00">MLAEdit</text>
</a>
</g>
<!-- \\MLA_List_Table -->
<g id="node4" class="node"><title>\\MLA_List_Table</title>
<a xlink:href="includes.class-mla-list-table.html" xlink:title="MLA_List_Table" target="_parent">
<polygon fill="none" stroke="black" points="327.5,-430 216.5,-430 216.5,-394 327.5,-394 327.5,-430"/>
<text text-anchor="middle" x="272" y="-409.2" font-family="Courier,monospace" font-size="11.00">MLA_List_Table</text>
</a>
</g>
<!-- \\WP_List_Table -->
<g id="node13" class="node"><title>\\WP_List_Table</title>
<ellipse fill="none" stroke="black" cx="72" cy="-412" rx="71.4873" ry="18"/>
<text text-anchor="middle" x="72" y="-408.3" font-family="Times New Roman,serif" font-size="14.00" fill="gray">\WP_List_Table</text>
</g>
<!-- \\MLA_List_Table&#45;&gt;\\WP_List_Table -->
<g id="edge3" class="edge"><title>\\MLA_List_Table&#45;&gt;\\WP_List_Table</title>
<path fill="none" stroke="black" d="M216.371,-412C197.091,-412 174.98,-412 153.987,-412"/>
<polygon fill="none" stroke="black" points="153.788,-408.5 143.788,-412 153.788,-415.5 153.788,-408.5"/>
</g>
<!-- \\MLA -->
<g id="node5" class="node"><title>\\MLA</title>
<a xlink:href="includes.class-mla-main.html" xlink:title="MLA" target="_parent">
<polygon fill="none" stroke="black" points="299,-376 245,-376 245,-340 299,-340 299,-376"/>
<text text-anchor="middle" x="272" y="-355.2" font-family="Courier,monospace" font-size="11.00">MLA</text>
</a>
</g>
<!-- \\MLAModal -->
<g id="node6" class="node"><title>\\MLAModal</title>
<a xlink:href="includes.class-mla-media-modal.html" xlink:title="MLAModal" target="_parent">
<polygon fill="none" stroke="black" points="307.5,-322 236.5,-322 236.5,-286 307.5,-286 307.5,-322"/>
<text text-anchor="middle" x="272" y="-301.2" font-family="Courier,monospace" font-size="11.00">MLAModal</text>
</a>
</g>
<!-- \\MLAObjects -->
<g id="node7" class="node"><title>\\MLAObjects</title>
<a xlink:href="includes.class-mla-objects.html" xlink:title="MLAObjects" target="_parent">
<polygon fill="none" stroke="black" points="314,-268 230,-268 230,-232 314,-232 314,-268"/>
<text text-anchor="middle" x="272" y="-247.2" font-family="Courier,monospace" font-size="11.00">MLAObjects</text>
</a>
</g>
<!-- \\MLAOptions -->
<g id="node8" class="node"><title>\\MLAOptions</title>
<a xlink:href="includes.class-mla-options.html" xlink:title="MLAOptions" target="_parent">
<polygon fill="none" stroke="black" points="314,-214 230,-214 230,-178 314,-178 314,-214"/>
<text text-anchor="middle" x="272" y="-193.2" font-family="Courier,monospace" font-size="11.00">MLAOptions</text>
</a>
</g>
<!-- \\MLASettings -->
<g id="node9" class="node"><title>\\MLASettings</title>
<a xlink:href="includes.class-mla-settings.html" xlink:title="MLASettings" target="_parent">
<polygon fill="none" stroke="black" points="317.5,-160 226.5,-160 226.5,-124 317.5,-124 317.5,-160"/>
<text text-anchor="middle" x="272" y="-139.2" font-family="Courier,monospace" font-size="11.00">MLASettings</text>
</a>
</g>
<!-- \\MLAShortcodes -->
<g id="node10" class="node"><title>\\MLAShortcodes</title>
<a xlink:href="includes.class-mla-shortcodes.html" xlink:title="MLAShortcodes" target="_parent">
<polygon fill="none" stroke="black" points="324,-106 220,-106 220,-70 324,-70 324,-106"/>
<text text-anchor="middle" x="272" y="-85.2" font-family="Courier,monospace" font-size="11.00">MLAShortcodes</text>
</a>
</g>
<!-- \\MLATest -->
<g id="node11" class="node"><title>\\MLATest</title>
<a xlink:href="tests.class-mla-tests.html" xlink:title="MLATest" target="_parent">
<polygon fill="none" stroke="black" points="304,-52 240,-52 240,-16 304,-16 304,-52"/>
<text text-anchor="middle" x="272" y="-31.2" font-family="Courier,monospace" font-size="11.00">MLATest</text>
</a>
</g>
</g>
</svg>
