<?xml version="1.0" encoding="UTF-8" standalone="no"?>
<!DOCTYPE svg PUBLIC "-//W3C//DTD SVG 1.1//EN"
 "http://www.w3.org/Graphics/SVG/1.1/DTD/svg11.dtd">
<!-- Generated by graphviz version 2.28.0 (20110507.0327)
 -->
<!-- Title: G Pages: 1 -->
<svg width="460pt" height="852pt"
 viewBox="0.00 0.00 460.00 852.00" xmlns="http://www.w3.org/2000/svg" xmlns:xlink="http://www.w3.org/1999/xlink">
<g id="graph1" class="graph" transform="scale(1 1) rotate(0) translate(4 848)">
<title>G</title>
<polygon fill="white" stroke="white" points="-4,5 -4,-848 457,-848 457,5 -4,5"/>
<g id="graph2" class="cluster"><title>cluster_global</title>
<polyline fill="none" stroke="gray" points="220,-8 432,-8 "/>
<path fill="none" stroke="gray" d="M432,-8C438,-8 444,-14 444,-20"/>
<polyline fill="none" stroke="gray" points="444,-20 444,-824 "/>
<path fill="none" stroke="gray" d="M444,-824C444,-830 438,-836 432,-836"/>
<polyline fill="none" stroke="gray" points="432,-836 220,-836 "/>
<path fill="none" stroke="gray" d="M220,-836C214,-836 208,-830 208,-824"/>
<polyline fill="none" stroke="gray" points="208,-824 208,-20 "/>
<path fill="none" stroke="gray" d="M208,-20C208,-14 214,-8 220,-8"/>
<text text-anchor="middle" x="326" y="-823.2" font-family="Times New Roman,serif" font-size="11.00" fill="gray">global</text>
</g>
<!-- \\MLAData -->
<g id="node2" class="node"><title>\\MLAData</title>
<a xlink:href="includes.class-mla-data.html" xlink:title="MLAData" target="_parent">
<polygon fill="none" stroke="black" points="358,-808 294,-808 294,-772 358,-772 358,-808"/>
<text text-anchor="middle" x="326" y="-787.2" font-family="Courier,monospace" font-size="11.00">MLAData</text>
</a>
</g>
<!-- \\MLAEdit -->
<g id="node3" class="node"><title>\\MLAEdit</title>
<a xlink:href="includes.class-mla-edit-media.html" xlink:title="MLAEdit" target="_parent">
<polygon fill="none" stroke="black" points="358,-754 294,-754 294,-718 358,-718 358,-754"/>
<text text-anchor="middle" x="326" y="-733.2" font-family="Courier,monospace" font-size="11.00">MLAEdit</text>
</a>
</g>
<!-- \\MLA_List_Table -->
<g id="node4" class="node"><title>\\MLA_List_Table</title>
<a xlink:href="includes.class-mla-list-table.html" xlink:title="MLA_List_Table" target="_parent">
<polygon fill="none" stroke="black" points="381.5,-160 270.5,-160 270.5,-124 381.5,-124 381.5,-160"/>
<text text-anchor="middle" x="326" y="-139.2" font-family="Courier,monospace" font-size="11.00">MLA_List_Table</text>
</a>
</g>
<!-- \\WP_List_Table -->
<g id="node18" class="node"><title>\\WP_List_Table</title>
<ellipse fill="none" stroke="black" cx="72" cy="-304" rx="71.4873" ry="18"/>
<text text-anchor="middle" x="72" y="-300.3" font-family="Times New Roman,serif" font-size="14.00" fill="gray">\WP_List_Table</text>
</g>
<!-- \\MLA_List_Table&#45;&gt;\\WP_List_Table -->
<g id="edge3" class="edge"><title>\\MLA_List_Table&#45;&gt;\\WP_List_Table</title>
<path fill="none" stroke="black" d="M270.295,-148.137C249.827,-152.063 226.962,-158.49 208,-169 158.711,-196.318 115.347,-246.894 91.7775,-277.787"/>
<polygon fill="none" stroke="black" points="88.8618,-275.841 85.666,-285.943 94.4636,-280.039 88.8618,-275.841"/>
</g>
<!-- \\MLA -->
<g id="node5" class="node"><title>\\MLA</title>
<a xlink:href="includes.class-mla-main.html" xlink:title="MLA" target="_parent">
<polygon fill="none" stroke="black" points="353,-646 299,-646 299,-610 353,-610 353,-646"/>
<text text-anchor="middle" x="326" y="-625.2" font-family="Courier,monospace" font-size="11.00">MLA</text>
</a>
</g>
<!-- \\MLAModal -->
<g id="node6" class="node"><title>\\MLAModal</title>
<a xlink:href="includes.class-mla-media-modal.html" xlink:title="MLAModal" target="_parent">
<polygon fill="none" stroke="black" points="361.5,-592 290.5,-592 290.5,-556 361.5,-556 361.5,-592"/>
<text text-anchor="middle" x="326" y="-571.2" font-family="Courier,monospace" font-size="11.00">MLAModal</text>
</a>
</g>
<!-- \\MLAMime -->
<g id="node7" class="node"><title>\\MLAMime</title>
<a xlink:href="includes.class-mla-mime-types.html" xlink:title="MLAMime" target="_parent">
<polygon fill="none" stroke="black" points="358,-538 294,-538 294,-502 358,-502 358,-538"/>
<text text-anchor="middle" x="326" y="-517.2" font-family="Courier,monospace" font-size="11.00">MLAMime</text>
</a>
</g>
<!-- \\MLAObjects -->
<g id="node8" class="node"><title>\\MLAObjects</title>
<a xlink:href="includes.class-mla-objects.html" xlink:title="MLAObjects" target="_parent">
<polygon fill="none" stroke="black" points="368,-484 284,-484 284,-448 368,-448 368,-484"/>
<text text-anchor="middle" x="326" y="-463.2" font-family="Courier,monospace" font-size="11.00">MLAObjects</text>
</a>
</g>
<!-- \\MLATextWidget -->
<g id="node9" class="node"><title>\\MLATextWidget</title>
<a xlink:href="includes.class-mla-objects.html" xlink:title="MLATextWidget" target="_parent">
<polygon fill="none" stroke="black" points="378,-106 274,-106 274,-70 378,-70 378,-106"/>
<text text-anchor="middle" x="326" y="-85.2" font-family="Courier,monospace" font-size="11.00">MLATextWidget</text>
</a>
</g>
<!-- \\WP_Widget -->
<g id="node20" class="node"><title>\\WP_Widget</title>
<ellipse fill="none" stroke="black" cx="72" cy="-88" rx="58.4896" ry="18"/>
<text text-anchor="middle" x="72" y="-84.3" font-family="Times New Roman,serif" font-size="14.00" fill="gray">\WP_Widget</text>
</g>
<!-- \\MLATextWidget&#45;&gt;\\WP_Widget -->
<g id="edge5" class="edge"><title>\\MLATextWidget&#45;&gt;\\WP_Widget</title>
<path fill="none" stroke="black" d="M273.7,-88C235.412,-88 182.72,-88 140.933,-88"/>
<polygon fill="none" stroke="black" points="140.834,-84.5001 130.834,-88 140.834,-91.5001 140.834,-84.5001"/>
</g>
<!-- \\MLAOptions -->
<g id="node10" class="node"><title>\\MLAOptions</title>
<a xlink:href="includes.class-mla-options.html" xlink:title="MLAOptions" target="_parent">
<polygon fill="none" stroke="black" points="368,-376 284,-376 284,-340 368,-340 368,-376"/>
<text text-anchor="middle" x="326" y="-355.2" font-family="Courier,monospace" font-size="11.00">MLAOptions</text>
</a>
</g>
<!-- \\MLASettings -->
<g id="node11" class="node"><title>\\MLASettings</title>
<a xlink:href="includes.class-mla-settings.html" xlink:title="MLASettings" target="_parent">
<polygon fill="none" stroke="black" points="371.5,-322 280.5,-322 280.5,-286 371.5,-286 371.5,-322"/>
<text text-anchor="middle" x="326" y="-301.2" font-family="Courier,monospace" font-size="11.00">MLASettings</text>
</a>
</g>
<!-- \\MLAShortcodes -->
<g id="node12" class="node"><title>\\MLAShortcodes</title>
<a xlink:href="includes.class-mla-shortcodes.html" xlink:title="MLAShortcodes" target="_parent">
<polygon fill="none" stroke="black" points="378,-268 274,-268 274,-232 378,-232 378,-268"/>
<text text-anchor="middle" x="326" y="-247.2" font-family="Courier,monospace" font-size="11.00">MLAShortcodes</text>
</a>
</g>
<!-- \\MLA_Upload_List_Table -->
<g id="node13" class="node"><title>\\MLA_Upload_List_Table</title>
<a xlink:href="includes.class-mla-upload-list-table.html" xlink:title="MLA_Upload_List_Table" target="_parent">
<polygon fill="none" stroke="black" points="405,-700 247,-700 247,-664 405,-664 405,-700"/>
<text text-anchor="middle" x="326" y="-679.2" font-family="Courier,monospace" font-size="11.00">MLA_Upload_List_Table</text>
</a>
</g>
<!-- \\MLA_Upload_List_Table&#45;&gt;\\WP_List_Table -->
<g id="edge7" class="edge"><title>\\MLA_Upload_List_Table&#45;&gt;\\WP_List_Table</title>
<path fill="none" stroke="black" d="M246.906,-675.107C232.756,-670.924 219.017,-664.569 208,-655 108.314,-568.41 81.8784,-399.571 75.1716,-332.479"/>
<polygon fill="none" stroke="black" points="78.6318,-331.887 74.2256,-322.252 71.6616,-332.532 78.6318,-331.887"/>
</g>
<!-- \\MLA_Upload_Optional_List_Table -->
<g id="node14" class="node"><title>\\MLA_Upload_Optional_List_Table</title>
<a xlink:href="includes.class-mla-upload-optional-list-table.html" xlink:title="MLA_Upload_Optional_List_Table" target="_parent">
<polygon fill="none" stroke="black" points="435.5,-430 216.5,-430 216.5,-394 435.5,-394 435.5,-430"/>
<text text-anchor="middle" x="326" y="-409.2" font-family="Courier,monospace" font-size="11.00">MLA_Upload_Optional_List_Table</text>
</a>
</g>
<!-- \\MLA_Upload_Optional_List_Table&#45;&gt;\\WP_List_Table -->
<g id="edge9" class="edge"><title>\\MLA_Upload_Optional_List_Table&#45;&gt;\\WP_List_Table</title>
<path fill="none" stroke="black" d="M234.058,-393.997C225.133,-391.345 216.312,-388.355 208,-385 170.426,-369.835 131.1,-345.072 104.65,-326.912"/>
<polygon fill="none" stroke="black" points="106.402,-323.868 96.1943,-321.03 102.405,-329.614 106.402,-323.868"/>
</g>
<!-- \\MLA_View_List_Table -->
<g id="node15" class="node"><title>\\MLA_View_List_Table</title>
<a xlink:href="includes.class-mla-view-list-table.html" xlink:title="MLA_View_List_Table" target="_parent">
<polygon fill="none" stroke="black" points="398.5,-214 253.5,-214 253.5,-178 398.5,-178 398.5,-214"/>
<text text-anchor="middle" x="326" y="-193.2" font-family="Courier,monospace" font-size="11.00">MLA_View_List_Table</text>
</a>
</g>
<!-- \\MLA_View_List_Table&#45;&gt;\\WP_List_Table -->
<g id="edge11" class="edge"><title>\\MLA_View_List_Table&#45;&gt;\\WP_List_Table</title>
<path fill="none" stroke="black" d="M253.367,-208.782C238.116,-212.535 222.305,-217.226 208,-223 170.426,-238.165 131.1,-262.928 104.65,-281.088"/>
<polygon fill="none" stroke="black" points="102.405,-278.386 96.1943,-286.97 106.402,-284.132 102.405,-278.386"/>
</g>
<!-- \\MLATest -->
<g id="node16" class="node"><title>\\MLATest</title>
<a xlink:href="tests.class-mla-tests.html" xlink:title="MLATest" target="_parent">
<polygon fill="none" stroke="black" points="358,-52 294,-52 294,-16 358,-16 358,-52"/>
<text text-anchor="middle" x="326" y="-31.2" font-family="Courier,monospace" font-size="11.00">MLATest</text>
</a>
</g>
</g>
</svg>
