<?xml version="1.0" encoding="UTF-8" standalone="no"?>
<!DOCTYPE svg PUBLIC "-//W3C//DTD SVG 1.1//EN"
 "http://www.w3.org/Graphics/SVG/1.1/DTD/svg11.dtd">
<!-- Generated by graphviz version 2.28.0 (20110507.0327)
 -->
<!-- Title: G Pages: 1 -->
<svg width="546pt" height="1176pt"
 viewBox="0.00 0.00 546.00 1176.00" xmlns="http://www.w3.org/2000/svg" xmlns:xlink="http://www.w3.org/1999/xlink">
<g id="graph1" class="graph" transform="scale(1 1) rotate(0) translate(4 1172)">
<title>G</title>
<polygon fill="white" stroke="white" points="-4,5 -4,-1172 543,-1172 543,5 -4,5"/>
<g id="graph2" class="cluster"><title>cluster_global</title>
<polyline fill="none" stroke="gray" points="306,-8 518,-8 "/>
<path fill="none" stroke="gray" d="M518,-8C524,-8 530,-14 530,-20"/>
<polyline fill="none" stroke="gray" points="530,-20 530,-1148 "/>
<path fill="none" stroke="gray" d="M530,-1148C530,-1154 524,-1160 518,-1160"/>
<polyline fill="none" stroke="gray" points="518,-1160 306,-1160 "/>
<path fill="none" stroke="gray" d="M306,-1160C300,-1160 294,-1154 294,-1148"/>
<polyline fill="none" stroke="gray" points="294,-1148 294,-20 "/>
<path fill="none" stroke="gray" d="M294,-20C294,-14 300,-8 306,-8"/>
<text text-anchor="middle" x="412" y="-1147.2" font-family="Times New Roman,serif" font-size="11.00" fill="gray">global</text>
</g>
<!-- \\MNA_Pad_Counts_Walker -->
<g id="node2" class="node"><title>\\MNA_Pad_Counts_Walker</title>
<a xlink:href="examples.twentytwelve-mla.content-tosca30-dropdown.html" xlink:title="MNA_Pad_Counts_Walker" target="_parent">
<polygon fill="none" stroke="black" points="491,-916 333,-916 333,-880 491,-880 491,-916"/>
<text text-anchor="middle" x="412" y="-895.2" font-family="Courier,monospace" font-size="11.00">MNA_Pad_Counts_Walker</text>
</a>
</g>
<!-- \\Walker_Category -->
<g id="node24" class="node"><title>\\Walker_Category</title>
<ellipse fill="none" stroke="black" cx="115" cy="-1006" rx="77.1866" ry="18"/>
<text text-anchor="middle" x="115" y="-1002.3" font-family="Times New Roman,serif" font-size="14.00" fill="gray">\Walker_Category</text>
</g>
<!-- \\MNA_Pad_Counts_Walker&#45;&gt;\\Walker_Category -->
<g id="edge3" class="edge"><title>\\MNA_Pad_Counts_Walker&#45;&gt;\\Walker_Category</title>
<path fill="none" stroke="black" d="M332.977,-913.708C319.839,-917.006 306.438,-920.783 294,-925 245.151,-941.564 191.592,-966.995 156.117,-984.936"/>
<polygon fill="none" stroke="black" points="154.377,-981.894 147.057,-989.554 157.555,-988.131 154.377,-981.894"/>
</g>
<!-- \\MLAPDF -->
<g id="node3" class="node"><title>\\MLAPDF</title>
<a xlink:href="includes.class-mla-data-pdf.html" xlink:title="MLAPDF" target="_parent">
<polygon fill="none" stroke="black" points="440.5,-1078 383.5,-1078 383.5,-1042 440.5,-1042 440.5,-1078"/>
<text text-anchor="middle" x="412" y="-1057.2" font-family="Courier,monospace" font-size="11.00">MLAPDF</text>
</a>
</g>
<!-- \\MLAData -->
<g id="node4" class="node"><title>\\MLAData</title>
<a xlink:href="includes.class-mla-data.html" xlink:title="MLAData" target="_parent">
<polygon fill="none" stroke="black" points="444,-1024 380,-1024 380,-988 444,-988 444,-1024"/>
<text text-anchor="middle" x="412" y="-1003.2" font-family="Courier,monospace" font-size="11.00">MLAData</text>
</a>
</g>
<!-- \\MLAEdit -->
<g id="node5" class="node"><title>\\MLAEdit</title>
<a xlink:href="includes.class-mla-edit-media.html" xlink:title="MLAEdit" target="_parent">
<polygon fill="none" stroke="black" points="444,-970 380,-970 380,-934 444,-934 444,-970"/>
<text text-anchor="middle" x="412" y="-949.2" font-family="Courier,monospace" font-size="11.00">MLAEdit</text>
</a>
</g>
<!-- \\MLA_Checklist_Walker -->
<g id="node6" class="node"><title>\\MLA_Checklist_Walker</title>
<a xlink:href="includes.class-mla-edit-media.html" xlink:title="MLA_Checklist_Walker" target="_parent">
<polygon fill="none" stroke="black" points="488,-1132 336,-1132 336,-1096 488,-1096 488,-1132"/>
<text text-anchor="middle" x="412" y="-1111.2" font-family="Courier,monospace" font-size="11.00">MLA_Checklist_Walker</text>
</a>
</g>
<!-- \\MLA_Checklist_Walker&#45;&gt;\\Walker_Category -->
<g id="edge5" class="edge"><title>\\MLA_Checklist_Walker&#45;&gt;\\Walker_Category</title>
<path fill="none" stroke="black" d="M335.788,-1098.99C321.759,-1095.53 307.326,-1091.52 294,-1087 245.151,-1070.44 191.592,-1045 156.117,-1027.06"/>
<polygon fill="none" stroke="black" points="157.555,-1023.87 147.057,-1022.45 154.377,-1030.11 157.555,-1023.87"/>
</g>
<!-- \\MLA_Image_Editor -->
<g id="node7" class="node"><title>\\MLA_Image_Editor</title>
<a xlink:href="includes.class-mla-image-editor.html" xlink:title="MLA_Image_Editor" target="_parent">
<polygon fill="none" stroke="black" points="474.5,-862 349.5,-862 349.5,-826 474.5,-826 474.5,-862"/>
<text text-anchor="middle" x="412" y="-841.2" font-family="Courier,monospace" font-size="11.00">MLA_Image_Editor</text>
</a>
</g>
<!-- \\WP_Image_Editor_Imagick -->
<g id="node27" class="node"><title>\\WP_Image_Editor_Imagick</title>
<ellipse fill="none" stroke="black" cx="115" cy="-844" rx="115.08" ry="18"/>
<text text-anchor="middle" x="115" y="-840.3" font-family="Times New Roman,serif" font-size="14.00" fill="gray">\WP_Image_Editor_Imagick</text>
</g>
<!-- \\MLA_Image_Editor&#45;&gt;\\WP_Image_Editor_Imagick -->
<g id="edge7" class="edge"><title>\\MLA_Image_Editor&#45;&gt;\\WP_Image_Editor_Imagick</title>
<path fill="none" stroke="black" d="M349.158,-844C317.519,-844 277.834,-844 240.22,-844"/>
<polygon fill="none" stroke="black" points="240.193,-840.5 230.193,-844 240.193,-847.5 240.193,-840.5"/>
</g>
<!-- \\MLA_List_Table -->
<g id="node8" class="node"><title>\\MLA_List_Table</title>
<a xlink:href="includes.class-mla-list-table.html" xlink:title="MLA_List_Table" target="_parent">
<polygon fill="none" stroke="black" points="467.5,-538 356.5,-538 356.5,-502 467.5,-502 467.5,-538"/>
<text text-anchor="middle" x="412" y="-517.2" font-family="Courier,monospace" font-size="11.00">MLA_List_Table</text>
</a>
</g>
<!-- \\WP_List_Table -->
<g id="node29" class="node"><title>\\WP_List_Table</title>
<ellipse fill="none" stroke="black" cx="115" cy="-358" rx="71.4873" ry="18"/>
<text text-anchor="middle" x="115" y="-354.3" font-family="Times New Roman,serif" font-size="14.00" fill="gray">\WP_List_Table</text>
</g>
<!-- \\MLA_List_Table&#45;&gt;\\WP_List_Table -->
<g id="edge9" class="edge"><title>\\MLA_List_Table&#45;&gt;\\WP_List_Table</title>
<path fill="none" stroke="black" d="M356.418,-512.35C336.184,-508.252 313.446,-502.104 294,-493 233.188,-464.532 173.222,-412.829 140.768,-382.335"/>
<polygon fill="none" stroke="black" points="143.166,-379.786 133.507,-375.433 138.344,-384.86 143.166,-379.786"/>
</g>
<!-- \\MLA -->
<g id="node9" class="node"><title>\\MLA</title>
<a xlink:href="includes.class-mla-main.html" xlink:title="MLA" target="_parent">
<polygon fill="none" stroke="black" points="439,-754 385,-754 385,-718 439,-718 439,-754"/>
<text text-anchor="middle" x="412" y="-733.2" font-family="Courier,monospace" font-size="11.00">MLA</text>
</a>
</g>
<!-- \\MLAModal -->
<g id="node10" class="node"><title>\\MLAModal</title>
<a xlink:href="includes.class-mla-media-modal.html" xlink:title="MLAModal" target="_parent">
<polygon fill="none" stroke="black" points="447.5,-700 376.5,-700 376.5,-664 447.5,-664 447.5,-700"/>
<text text-anchor="middle" x="412" y="-679.2" font-family="Courier,monospace" font-size="11.00">MLAModal</text>
</a>
</g>
<!-- \\MLAMime -->
<g id="node11" class="node"><title>\\MLAMime</title>
<a xlink:href="includes.class-mla-mime-types.html" xlink:title="MLAMime" target="_parent">
<polygon fill="none" stroke="black" points="444,-646 380,-646 380,-610 444,-610 444,-646"/>
<text text-anchor="middle" x="412" y="-625.2" font-family="Courier,monospace" font-size="11.00">MLAMime</text>
</a>
</g>
<!-- \\MLAObjects -->
<g id="node12" class="node"><title>\\MLAObjects</title>
<a xlink:href="includes.class-mla-objects.html" xlink:title="MLAObjects" target="_parent">
<polygon fill="none" stroke="black" points="454,-592 370,-592 370,-556 454,-556 454,-592"/>
<text text-anchor="middle" x="412" y="-571.2" font-family="Courier,monospace" font-size="11.00">MLAObjects</text>
</a>
</g>
<!-- \\MLATextWidget -->
<g id="node13" class="node"><title>\\MLATextWidget</title>
<a xlink:href="includes.class-mla-objects.html" xlink:title="MLATextWidget" target="_parent">
<polygon fill="none" stroke="black" points="464,-106 360,-106 360,-70 464,-70 464,-106"/>
<text text-anchor="middle" x="412" y="-85.2" font-family="Courier,monospace" font-size="11.00">MLATextWidget</text>
</a>
</g>
<!-- \\WP_Widget -->
<g id="node31" class="node"><title>\\WP_Widget</title>
<ellipse fill="none" stroke="black" cx="115" cy="-88" rx="58.4896" ry="18"/>
<text text-anchor="middle" x="115" y="-84.3" font-family="Times New Roman,serif" font-size="14.00" fill="gray">\WP_Widget</text>
</g>
<!-- \\MLATextWidget&#45;&gt;\\WP_Widget -->
<g id="edge11" class="edge"><title>\\MLATextWidget&#45;&gt;\\WP_Widget</title>
<path fill="none" stroke="black" d="M359.952,-88C311.228,-88 237.501,-88 183.853,-88"/>
<polygon fill="none" stroke="black" points="183.742,-84.5001 173.742,-88 183.742,-91.5001 183.742,-84.5001"/>
</g>
<!-- \\MLAOptions -->
<g id="node14" class="node"><title>\\MLAOptions</title>
<a xlink:href="includes.class-mla-options.html" xlink:title="MLAOptions" target="_parent">
<polygon fill="none" stroke="black" points="454,-484 370,-484 370,-448 454,-448 454,-484"/>
<text text-anchor="middle" x="412" y="-463.2" font-family="Courier,monospace" font-size="11.00">MLAOptions</text>
</a>
</g>
<!-- \\MLASettings -->
<g id="node15" class="node"><title>\\MLASettings</title>
<a xlink:href="includes.class-mla-settings.html" xlink:title="MLASettings" target="_parent">
<polygon fill="none" stroke="black" points="457.5,-430 366.5,-430 366.5,-394 457.5,-394 457.5,-430"/>
<text text-anchor="middle" x="412" y="-409.2" font-family="Courier,monospace" font-size="11.00">MLASettings</text>
</a>
</g>
<!-- \\MLAShortcodes -->
<g id="node16" class="node"><title>\\MLAShortcodes</title>
<a xlink:href="includes.class-mla-shortcodes.html" xlink:title="MLAShortcodes" target="_parent">
<polygon fill="none" stroke="black" points="464,-376 360,-376 360,-340 464,-340 464,-376"/>
<text text-anchor="middle" x="412" y="-355.2" font-family="Courier,monospace" font-size="11.00">MLAShortcodes</text>
</a>
</g>
<!-- \\MLAStreamImage -->
<g id="node17" class="node"><title>\\MLAStreamImage</title>
<a xlink:href="includes.mla-stream-image.html" xlink:title="MLAStreamImage" target="_parent">
<polygon fill="none" stroke="black" points="467.5,-322 356.5,-322 356.5,-286 467.5,-286 467.5,-322"/>
<text text-anchor="middle" x="412" y="-301.2" font-family="Courier,monospace" font-size="11.00">MLAStreamImage</text>
</a>
</g>
<!-- \\MLAMutex -->
<g id="node18" class="node"><title>\\MLAMutex</title>
<a xlink:href="includes.mla-stream-image.html" xlink:title="MLAMutex" target="_parent">
<polygon fill="none" stroke="black" points="447.5,-268 376.5,-268 376.5,-232 447.5,-232 447.5,-268"/>
<text text-anchor="middle" x="412" y="-247.2" font-family="Courier,monospace" font-size="11.00">MLAMutex</text>
</a>
</g>
<!-- \\MLA_Upload_List_Table -->
<g id="node19" class="node"><title>\\MLA_Upload_List_Table</title>
<a xlink:href="includes.class-mla-upload-list-table.html" xlink:title="MLA_Upload_List_Table" target="_parent">
<polygon fill="none" stroke="black" points="491,-214 333,-214 333,-178 491,-178 491,-214"/>
<text text-anchor="middle" x="412" y="-193.2" font-family="Courier,monospace" font-size="11.00">MLA_Upload_List_Table</text>
</a>
</g>
<!-- \\MLA_Upload_List_Table&#45;&gt;\\WP_List_Table -->
<g id="edge13" class="edge"><title>\\MLA_Upload_List_Table&#45;&gt;\\WP_List_Table</title>
<path fill="none" stroke="black" d="M332.982,-209.152C319.646,-212.757 306.178,-217.299 294,-223 233.188,-251.468 173.222,-303.171 140.768,-333.665"/>
<polygon fill="none" stroke="black" points="138.344,-331.14 133.507,-340.567 143.166,-336.214 138.344,-331.14"/>
</g>
<!-- \\MLA_Upload_Optional_List_Table -->
<g id="node20" class="node"><title>\\MLA_Upload_Optional_List_Table</title>
<a xlink:href="includes.class-mla-upload-optional-list-table.html" xlink:title="MLA_Upload_Optional_List_Table" target="_parent">
<polygon fill="none" stroke="black" points="521.5,-160 302.5,-160 302.5,-124 521.5,-124 521.5,-160"/>
<text text-anchor="middle" x="412" y="-139.2" font-family="Courier,monospace" font-size="11.00">MLA_Upload_Optional_List_Table</text>
</a>
</g>
<!-- \\MLA_Upload_Optional_List_Table&#45;&gt;\\WP_List_Table -->
<g id="edge15" class="edge"><title>\\MLA_Upload_Optional_List_Table&#45;&gt;\\WP_List_Table</title>
<path fill="none" stroke="black" d="M312.614,-160.093C306.146,-162.676 299.876,-165.627 294,-169 221.89,-210.391 161.28,-290.264 133.037,-331.67"/>
<polygon fill="none" stroke="black" points="130.023,-329.881 127.351,-340.133 135.833,-333.784 130.023,-329.881"/>
</g>
<!-- \\MLA_View_List_Table -->
<g id="node21" class="node"><title>\\MLA_View_List_Table</title>
<a xlink:href="includes.class-mla-view-list-table.html" xlink:title="MLA_View_List_Table" target="_parent">
<polygon fill="none" stroke="black" points="484.5,-808 339.5,-808 339.5,-772 484.5,-772 484.5,-808"/>
<text text-anchor="middle" x="412" y="-787.2" font-family="Courier,monospace" font-size="11.00">MLA_View_List_Table</text>
</a>
</g>
<!-- \\MLA_View_List_Table&#45;&gt;\\WP_List_Table -->
<g id="edge17" class="edge"><title>\\MLA_View_List_Table&#45;&gt;\\WP_List_Table</title>
<path fill="none" stroke="black" d="M339.348,-784.347C323.086,-780.264 306.844,-773.638 294,-763 171.945,-661.904 131.005,-460.645 119.716,-386.383"/>
<polygon fill="none" stroke="black" points="123.163,-385.767 118.259,-376.375 116.236,-386.775 123.163,-385.767"/>
</g>
<!-- \\MLATest -->
<g id="node22" class="node"><title>\\MLATest</title>
<a xlink:href="tests.class-mla-tests.html" xlink:title="MLATest" target="_parent">
<polygon fill="none" stroke="black" points="444,-52 380,-52 380,-16 444,-16 444,-52"/>
<text text-anchor="middle" x="412" y="-31.2" font-family="Courier,monospace" font-size="11.00">MLATest</text>
</a>
</g>
</g>
</svg>
